<?xml version="1.0" encoding="UTF-8" standalone="no"?>
<svg width="79px" height="87px" viewBox="0 0 79 87" version="1.1" xmlns="http://www.w3.org/2000/svg" xmlns:xlink="http://www.w3.org/1999/xlink" xmlns:sketch="http://www.bohemiancoding.com/sketch/ns">
    <title>city-hall2</title>
    <description>Created with Sketch (http://www.bohemiancoding.com/sketch)</description>
    <defs></defs>
    <g id="Page-1" stroke="none" stroke-width="1" fill="none" fill-rule="evenodd" sketch:type="MSPage">
        <g id="Artboard-4" sketch:type="MSArtboardGroup" transform="translate(-5.000000, -6.000000)">
            <g id="city-hall" sketch:type="MSLayerGroup" transform="translate(-32.000000, -12.000000)">
                <circle id="Oval-21" fill="#01662E" sketch:type="MSShapeGroup" cx="76.5" cy="65.5" r="39.5"></circle>
                <g id="Group" transform="translate(38.000000, 18.000000)" sketch:type="MSShapeGroup" fill="#FFFFFF">
                    <path d="M37.8924303,0 C35.7848606,-2.39076682e-07 36.00671,0.75 36.00671,0.75 L36.00671,3 L40,3 L40,0.75 C40,0.75 40,2.39076684e-07 37.8924303,0 Z" id="Rectangle-3"></path>
                    <path d="M38,4 C40.2091391,4 42,3.32842717 42,2.5 C42,1.67157283 40.2091391,1 38,1 C35.7908609,1 34,1.67157283 34,2.5 C34,3.32842717 35.7908609,4 38,4 Z" id="Oval-1-copy"></path>
                    <path d="M38.0492877,2 C36.0636489,2.0000003 35,2.8 35,2.8 L35,8 L41,8 L41,2.8 C41,2.8 40.0349265,1.99999971 38.0492877,2 Z" id="Rectangle-2" stroke="#FFFFFF" stroke-width="2"></path>
                    <path d="M38,11 C41.3137087,11 44,9.88071194 44,8.5 C44,7.11928806 41.3137087,6 38,6 C34.6862913,6 32,7.11928806 32,8.5 C32,9.88071194 34.6862913,11 38,11 Z" id="Oval-1"></path>
                    <rect id="Rectangle-1" x="9" y="24" width="59" height="8"></rect>
                    <path d="M4,72 L0,79 L77,79 L72,72 L4,72 Z" id="Rectangle-11"></path>
                    <rect id="Rectangle-5" x="9" y="32" width="5" height="40"></rect>
                    <rect id="Rectangle-5-copy" x="19" y="32" width="5" height="40"></rect>
                    <rect id="Rectangle-5-copy-2" x="30" y="32" width="5" height="40"></rect>
                    <rect id="Rectangle-5-copy-3" x="42" y="32" width="5" height="40"></rect>
                    <rect id="Rectangle-5-copy-4" x="52" y="32" width="5" height="40"></rect>
                    <rect id="Rectangle-5-copy-5" x="63" y="32" width="5" height="40"></rect>
                    <g transform="translate(33.000000, 8.000000)" stroke="#FFFFFF" id="Rectangle-5-copy-5">
                        <rect x="0" y="0" width="10" height="8"></rect>
                    </g>
                    <polygon id="Triangle-1" points="38.5 14 72 25 5 25 "></polygon>
                </g>
            </g>
        </g>
    </g>
</svg>