<?xml version="1.0" encoding="UTF-8" standalone="no"?>
<svg width="140px" height="139px" viewBox="0 0 140 139" version="1.1" xmlns="http://www.w3.org/2000/svg" xmlns:xlink="http://www.w3.org/1999/xlink" xmlns:sketch="http://www.bohemiancoding.com/sketch/ns">
    <title>dollah</title>
    <description>Created with Sketch (http://www.bohemiancoding.com/sketch)</description>
    <defs></defs>
    <g id="Page-2" stroke="none" stroke-width="1" fill="none" fill-rule="evenodd" sketch:type="MSPage">
        <g id="dollah" sketch:type="MSLayerGroup" transform="translate(0.000000, -1.000000)" fill="#019BB2">
            <g id="banknote" sketch:type="MSShapeGroup">
                <path d="M137.440625,46.31375 L93.690625,2.56375 C91.520625,0.39375 88.375,-0.476875 85.395625,0.258125 C83.825,0.643125 82.420625,1.4525 81.309375,2.56375 C80.31625,3.556875 79.568125,4.78625 79.139375,6.16 C77.1575,12.586875 73.731875,18.17375 68.66125,23.24 C61.88875,30.008125 53.06875,35.135625 43.736875,40.55625 C33.831875,46.29625 23.59875,52.24625 15.211875,60.62875 C8.085,67.764375 3.233125,75.700625 0.389375,84.914375 C-0.56875,88.025 0.266875,91.389375 2.559375,93.690625 L46.309375,137.440625 C48.479375,139.610625 51.625,140.48125 54.604375,139.74625 C56.175,139.3525 57.579375,138.551875 58.690625,137.440625 C59.68375,136.4475 60.431875,135.218125 60.860625,133.835625 C62.846875,127.40875 66.2725,121.821875 71.3475,116.755625 C78.115625,109.9875 86.93125,104.86875 96.271875,99.4525 C106.168125,93.70375 116.405625,87.75375 124.788125,79.37125 C131.915,72.244375 136.766875,64.299375 139.615,55.085625 C140.56875,51.979375 139.72875,48.601875 137.440625,46.31375 L137.440625,46.31375 Z M52.5,131.25 C38.01,116.76 23.24,101.985625 8.75,87.5 C21.18375,47.245625 75.075,49.004375 87.5,8.75 C101.99,23.235625 116.764375,38.01 131.25875,52.5 C118.820625,92.745625 64.929375,90.995625 52.5,131.25 L52.5,131.25 Z" id="Shape"></path>
                <path d="M85.58375,65.1875 C84.1575,63.993125 82.7225,63.179375 81.27875,62.776875 C79.84375,62.374375 78.40875,62.2125 76.95625,62.3175 C75.52125,62.426875 74.05125,62.755 72.58125,63.319375 C71.11125,63.8925 69.6325,64.51375 68.145,65.235625 C65.795625,62.53625 63.44625,59.8675 61.096875,57.39125 C62.155625,56.433125 63.18375,55.9475 64.1725,55.9125 C65.165625,55.86875 66.119375,55.97375 67.025,56.20125 C67.948125,56.433125 68.7925,56.63 69.57125,56.783125 C70.35875,56.93625 71.04125,56.765625 71.640625,56.2625 C72.275,55.715625 72.625,55.006875 72.673125,54.15375 C72.716875,53.291875 72.393125,52.451875 71.67125,51.63375 C70.748125,50.575 69.636875,49.931875 68.3025,49.695625 C66.985625,49.46375 65.638125,49.48125 64.23375,49.7875 C62.85125,50.1025 61.534375,50.623125 60.2875,51.358125 C59.040625,52.093125 58.03875,52.845625 57.295,53.580625 C57.010625,53.309375 56.72625,53.0425 56.441875,52.775625 C56.126875,52.486875 55.733125,52.329375 55.260625,52.338125 C54.78375,52.338125 54.39,52.54375 54.06625,52.92 C53.75125,53.2875 53.606875,53.71625 53.66375,54.166875 C53.7075,54.635 53.895625,54.99375 54.219375,55.269375 C54.50375,55.51 54.788125,55.74625 55.0725,55.995625 C53.9525,57.3475 53.029375,58.839375 52.303125,60.414375 C51.568125,61.99375 51.130625,63.56 50.96875,65.078125 C50.798125,66.609375 50.96,68.009375 51.428125,69.30875 C51.89625,70.616875 52.7625,71.728125 54.026875,72.778125 C56.0875,74.48875 58.51125,75.215 61.324375,75.053125 C64.12875,74.8825 67.151875,74.046875 70.4025,72.30125 C72.98375,75.285 75.57375,78.246875 78.159375,80.99875 C77.065625,81.921875 76.1075,82.45125 75.263125,82.621875 C74.41875,82.80125 73.66625,82.78375 72.98375,82.578125 C72.30125,82.36375 71.666875,82.0575 71.085,81.66375 C70.503125,81.26125 69.93,80.92 69.356875,80.64 C68.7925,80.36 68.210625,80.2025 67.615625,80.19375 C67.020625,80.185 66.38625,80.47375 65.68625,81.073125 C64.96875,81.69875 64.61,82.425 64.61,83.243125 C64.61,84.056875 64.98625,84.88375 65.72125,85.719375 C66.465,86.555 67.431875,87.259375 68.6,87.815 C69.768125,88.370625 71.089375,88.720625 72.541875,88.816875 C73.994375,88.9175 75.525625,88.69875 77.14,88.099375 C78.763125,87.50875 80.36875,86.44125 81.9525,84.853125 C82.71375,85.596875 83.48375,86.305625 84.249375,86.988125 C84.573125,87.268125 84.966875,87.408125 85.44375,87.373125 C85.903125,87.355625 86.305625,87.14125 86.625,86.75625 C86.94875,86.3625 87.084375,85.929375 87.03625,85.474375 C86.9925,85.015 86.804375,84.660625 86.489375,84.406875 C85.719375,83.79 84.949375,83.1425 84.18375,82.46 C85.491875,80.854375 86.541875,79.16125 87.320625,77.485625 C88.099375,75.80125 88.55875,74.178125 88.711875,72.673125 C88.865,71.159375 88.685625,69.794375 88.19125,68.55625 C87.70125,67.300625 86.830625,66.224375 85.58375,65.1875 L85.58375,65.1875 Z M61.123125,68.15375 C59.885,68.20625 58.804375,67.795 57.859375,66.880625 C57.456875,66.495625 57.176875,66.0275 57.00625,65.471875 C56.826875,64.91625 56.765625,64.308125 56.835625,63.643125 C56.896875,62.986875 57.09375,62.3 57.435,61.60875 C57.75875,60.9175 58.24,60.22625 58.8525,59.556875 C61.070625,61.761875 63.284375,64.18125 65.5025,66.68375 C63.8225,67.606875 62.36125,68.10125 61.123125,68.15375 L61.123125,68.15375 Z M81.76,76.9125 C81.36625,77.63875 80.915625,78.28625 80.38625,78.850625 C77.931875,76.374375 75.481875,73.653125 73.03625,70.861875 C73.661875,70.581875 74.318125,70.28875 75.026875,69.99125 C75.735625,69.69375 76.444375,69.496875 77.153125,69.374375 C77.879375,69.265 78.596875,69.295625 79.314375,69.46625 C80.023125,69.645625 80.696875,70.030625 81.3225,70.63875 C81.939375,71.255625 82.32875,71.894375 82.48625,72.585625 C82.656875,73.285625 82.665625,73.994375 82.5475,74.720625 C82.420625,75.45125 82.1625,76.1775 81.76,76.9125 L81.76,76.9125 Z" id="Shape"></path>
                <path d="M64.386875,97.0375 L64.378125,97.0375 C61.64375,99.1375 58.975,101.35125 56.503125,103.831875 C54.1275,106.2075 51.979375,108.71 50.11125,111.265 L47.11875,115.35125 L47.1275,115.36 C46.580625,116.213125 46.6725,117.359375 47.41625,118.103125 C48.269375,118.95625 49.665,118.95625 50.5225,118.103125 C50.65375,117.9675 50.75875,117.823125 50.84625,117.665625 L53.641875,113.8375 C55.374375,111.470625 57.378125,109.13875 59.59625,106.925 C62.050625,104.470625 64.325625,102.57625 67.095,100.471875 L67.08625,100.463125 C67.165,100.401875 67.239375,100.35375 67.309375,100.28375 C68.166875,99.430625 68.166875,98.035 67.309375,97.181875 C66.5175,96.376875 65.24875,96.341875 64.386875,97.0375 L64.386875,97.0375 Z" id="Shape"></path>
                <path d="M80.40375,33.753125 C78.115625,36.04125 75.635,38.101875 73.0625,40.06625 C72.883125,40.166875 72.70375,40.280625 72.550625,40.4425 C71.68875,41.304375 71.68875,42.70875 72.550625,43.570625 C73.38625,44.415 74.738125,44.4325 75.60875,43.631875 L75.62625,43.640625 C78.360625,41.540625 81.025,39.318125 83.496875,36.84625 C85.8725,34.470625 88.01625,31.976875 89.88875,29.421875 L92.88125,25.318125 L92.8725,25.309375 C93.61625,24.43875 93.58125,23.139375 92.763125,22.316875 C91.90125,21.455 90.505625,21.455 89.64375,22.316875 C89.481875,22.47875 89.36375,22.666875 89.25875,22.855 L86.35375,26.83625 C84.616875,29.21625 82.6175,31.539375 80.40375,33.753125 L80.40375,33.753125 Z" id="Shape"></path>
            </g>
        </g>
    </g>
</svg>