<svg xmlns="http://www.w3.org/2000/svg" xmlns:xlink="http://www.w3.org/1999/xlink" version="1.1" x="0px" y="0px" width="100px" height="100px" viewBox="0 0 100 100" enable-background="new 0 0 100 100" xml:space="preserve">
<g id="Captions">
</g>
<g id="Your_Icon">
	<path fill="#000000" d="M50,75.874c-4.963,0-8.999-4.038-8.999-8.999c0-4.341-3.532-7.876-7.876-7.876s-7.876,3.535-7.876,7.876   c0,10.708,6.882,20.127,16.934,23.462c0.476,3.892,3.802,6.914,7.817,6.914s7.342-3.022,7.817-6.914   c10.052-3.335,16.934-12.754,16.934-23.462c0-13.647-11.104-24.751-24.751-24.751c-4.963,0-8.999-4.038-8.999-8.999   s4.036-8.999,8.999-8.999s8.999,4.038,8.999,8.999c0,4.341,3.532,7.876,7.876,7.876s7.876-3.535,7.876-7.876   c0-10.708-6.882-20.127-16.934-23.462C57.342,5.771,54.016,2.749,50,2.749s-7.342,3.022-7.817,6.914   c-10.052,3.335-16.934,12.754-16.934,23.462c0,13.647,11.104,24.751,24.751,24.751c4.963,0,8.999,4.038,8.999,8.999   S54.963,75.874,50,75.874z M50,53.374c-11.167,0-20.249-9.082-20.249-20.249c0-9.224,6.245-17.278,15.186-19.585   c0.993-0.254,1.689-1.152,1.689-2.178v-0.737c0-1.86,1.514-3.374,3.374-3.374s3.374,1.514,3.374,3.374v0.737   c0,1.025,0.696,1.924,1.689,2.178c8.94,2.307,15.186,10.361,15.186,19.585c0,1.86-1.514,3.374-3.374,3.374   s-3.374-1.514-3.374-3.374c0-7.444-6.058-13.501-13.501-13.501s-13.501,6.057-13.501,13.501S42.557,46.626,50,46.626   c11.167,0,20.249,9.082,20.249,20.249c0,9.224-6.245,17.277-15.186,19.585c-0.993,0.254-1.689,1.152-1.689,2.178v0.737   c0,1.86-1.514,3.374-3.374,3.374s-3.374-1.514-3.374-3.374v-0.737c0-1.025-0.696-1.924-1.689-2.178   c-8.94-2.308-15.186-10.361-15.186-19.585c0-1.86,1.514-3.374,3.374-3.374s3.374,1.514,3.374,3.374   c0,7.443,6.058,13.501,13.501,13.501s13.501-6.058,13.501-13.501S57.443,53.374,50,53.374z"/>
</g>
</svg>