<?xml version="1.0" encoding="UTF-8" standalone="no"?>
<svg width="140px" height="127px" viewBox="0 0 140 127" version="1.1" xmlns="http://www.w3.org/2000/svg" xmlns:xlink="http://www.w3.org/1999/xlink" xmlns:sketch="http://www.bohemiancoding.com/sketch/ns">
    <title>hand-phone</title>
    <description>Created with Sketch (http://www.bohemiancoding.com/sketch)</description>
    <defs></defs>
    <g id="Page-2" stroke="none" stroke-width="1" fill="none" fill-rule="evenodd" sketch:type="MSPage">
        <g id="hand-phone" sketch:type="MSLayerGroup" fill="#10A453">
            <g id="Group" sketch:type="MSShapeGroup">
                <path d="M91,38.0311653 L115.5,38.0311653 C117.4355,38.0311653 119,36.4507209 119,34.5033875 C119,32.5560542 117.4355,30.9756098 115.5,30.9756098 L91,30.9756098 C89.0645,30.9756098 87.5,32.5560542 87.5,34.5033875 C87.5,36.4507209 89.0645,38.0311653 91,38.0311653 L91,38.0311653 Z" id="Shape"></path>
                <path d="M137.27,45.8593042 C138.9465,43.9825264 140,41.5236653 140,38.8037486 C140,32.9688042 135.289,28.2204153 129.5,28.2204153 L129.5,15.5204153 C129.5,6.96202642 122.591,-0.00180691057 114.1,-0.00180691057 L71.4,-0.00180691057 C62.9055,-0.00180691057 56,6.96202642 56,15.5204153 L56,22.9287486 L46.375,22.9287486 C44.1945,22.9287486 42.0595,23.6872209 40.355,25.0595264 C40.355,25.0595264 39.8195,25.4616931 39.7845,25.4899153 L38.1605,26.8269431 L1.2845,57.2363875 C-0.2135,58.4746375 -0.434,60.6936098 0.7875,62.1999709 C1.4805,63.0536931 2.485,63.4946653 3.5,63.4946653 C4.2805,63.4946653 5.061,63.2336098 5.712,62.6973875 L20.1565,50.784082 L26.551,45.5100542 L42.595,32.2808875 L44.73,30.559332 C45.1955,30.1889153 45.7765,29.9807764 46.3715,29.9807764 L70.8715,29.9807764 C72.3205,29.9807764 73.4965,31.1661098 73.4965,32.6266098 C73.4965,34.0871098 72.3205,35.2724431 70.8715,35.2724431 L63,35.2724431 L56,35.2724431 L49,35.2724431 C47.0645,35.2724431 45.5,36.8493598 45.5,38.8002209 C45.5,40.751082 47.0645,42.3279986 49,42.3279986 L56,42.3279986 C56,54.0014153 46.5815,63.4946653 35,63.4946653 C33.0645,63.4946653 31.5,65.071582 31.5,67.0224431 C31.5,68.9733042 33.0645,70.5502209 35,70.5502209 C43.365,70.5502209 50.8655,66.8143042 56,60.9334986 L56,84.661332 L45.5,84.661332 C45.213,84.661332 44.9295,84.6966098 44.653,84.7706931 L2.653,102.300221 C0.777,102.776471 -0.364,104.692054 0.105,106.579415 C0.5005,108.184554 1.9285,109.253471 3.4965,109.253471 C3.7765,109.253471 4.0635,109.218193 4.347,109.14411 L45.9305,91.7204153 L56,91.7204153 L56,111.475971 C56,120.041415 62.909,126.998193 71.4,126.998193 L114.1,126.998193 C122.5945,126.998193 129.5,120.037888 129.5,111.475971 L129.5,91.7204153 C135.289,91.7204153 140,86.9720264 140,81.137082 C140,78.4171653 138.9465,75.961832 137.27,74.0815264 C138.9465,72.2082764 140,69.7458875 140,67.0259709 C140,64.3060542 138.9465,61.8507209 137.27,59.9704153 C138.9465,58.0936375 140,55.6347764 140,52.9148598 C140,50.1949431 138.9465,47.736082 137.27,45.8593042 L137.27,45.8593042 Z M92.75,119.942638 C90.8145,119.942638 89.25,118.365721 89.25,116.41486 C89.25,114.463999 90.8145,112.887082 92.75,112.887082 C94.6855,112.887082 96.25,114.463999 96.25,116.41486 C96.25,118.365721 94.6855,119.942638 92.75,119.942638 L92.75,119.942638 Z M122.5,88.1926375 L122.5,105.831526 L63,105.831526 L63,42.3315264 L70.875,42.3315264 C76.1845,42.3315264 80.5,37.9817764 80.5,32.6301375 C80.5,27.2784986 76.1845,22.9287486 70.875,22.9287486 L63,22.9287486 L63,17.637082 L122.5,17.637082 L122.5,88.1926375 L122.5,88.1926375 Z M129.5,84.6648598 L129.5,77.6093042 C131.432,77.6093042 133,79.1932764 133,81.137082 C133,83.0808875 131.432,84.6648598 129.5,84.6648598 L129.5,84.6648598 Z M129.5,70.5537486 L129.5,63.4981931 C131.432,63.4981931 133,65.0821653 133,67.0259709 C133,68.9697764 131.432,70.5537486 129.5,70.5537486 L129.5,70.5537486 Z M129.5,56.4426375 L129.5,49.387082 C131.432,49.387082 133,50.9710542 133,52.9148598 C133,54.8586653 131.432,56.4426375 129.5,56.4426375 L129.5,56.4426375 Z M129.5,42.3315264 L129.5,35.2759709 C131.432,35.2759709 133,36.8599431 133,38.8037486 C133,40.7475542 131.432,42.3315264 129.5,42.3315264 L129.5,42.3315264 Z" id="Shape"></path>
                <path d="M78.0255,46.1203598 L73.5,50.6817764 L72.4745,49.6481375 C71.106,48.2687764 68.894,48.2687764 67.5255,49.6481375 C66.157,51.0274986 66.157,53.2570542 67.5255,54.6364153 L71.0255,58.1641931 C71.708,58.8521098 72.604,59.197832 73.5,59.197832 C74.396,59.197832 75.292,58.8521098 75.9745,58.1641931 L82.9745,51.1086375 C84.343,49.7292764 84.343,47.4997209 82.9745,46.1203598 C81.606,44.7409986 79.394,44.7409986 78.0255,46.1203598 L78.0255,46.1203598 Z" id="Shape"></path>
                <path d="M78.0255,63.7592486 L73.5,68.3206653 L72.4745,67.2870264 C71.106,65.9076653 68.894,65.9076653 67.5255,67.2870264 C66.157,68.6663875 66.157,70.8959431 67.5255,72.2753042 L71.0255,75.803082 C71.708,76.4909986 72.604,76.8367209 73.5,76.8367209 C74.396,76.8367209 75.292,76.4909986 75.9745,75.803082 L82.9745,68.7475264 C84.343,67.3681653 84.343,65.1386098 82.9745,63.7592486 C81.606,62.3798875 79.394,62.3798875 78.0255,63.7592486 L78.0255,63.7592486 Z" id="Shape"></path>
                <path d="M91,73.3089431 L115.5,73.3089431 C117.4355,73.3089431 119,71.7320264 119,69.7811653 C119,67.8303042 117.4355,66.2533875 115.5,66.2533875 L91,66.2533875 C89.0645,66.2533875 87.5,67.8303042 87.5,69.7811653 C87.5,71.7320264 89.0645,73.3089431 91,73.3089431 L91,73.3089431 Z" id="Shape"></path>
                <path d="M91,55.6700542 L115.5,55.6700542 C117.4355,55.6700542 119,54.0896098 119,52.1422764 C119,50.1949431 117.4355,48.6144986 115.5,48.6144986 L91,48.6144986 C89.0645,48.6144986 87.5,50.1949431 87.5,52.1422764 C87.5,54.0896098 89.0645,55.6700542 91,55.6700542 L91,55.6700542 Z" id="Shape"></path>
                <path d="M91,90.947832 L115.5,90.947832 C117.4355,90.947832 119,89.3709153 119,87.4200542 C119,85.4691931 117.4355,83.8922764 115.5,83.8922764 L91,83.8922764 C89.0645,83.8922764 87.5,85.4691931 87.5,87.4200542 C87.5,89.3709153 89.0645,90.947832 91,90.947832 L91,90.947832 Z" id="Shape"></path>
                <path d="M73.5,80.3644986 C69.6395,80.3644986 66.5,83.5253875 66.5,87.4200542 C66.5,91.3147209 69.6395,94.4756098 73.5,94.4756098 C77.3605,94.4756098 80.5,91.3147209 80.5,87.4200542 C80.5,83.5253875 77.3605,80.3644986 73.5,80.3644986 L73.5,80.3644986 Z M73.5,89.7695542 C72.212,89.7695542 71.1655,88.7147486 71.1655,87.4200542 C71.1655,86.1253598 72.212,85.0705542 73.5,85.0705542 C74.788,85.0705542 75.8345,86.1253598 75.8345,87.4200542 C75.8345,88.7147486 74.788,89.7695542 73.5,89.7695542 L73.5,89.7695542 Z" id="Shape"></path>
            </g>
        </g>
    </g>
</svg>