<?xml version="1.0" encoding="UTF-8" standalone="no"?>
<svg width="142px" height="133px" viewBox="0 0 142 133" version="1.1" xmlns="http://www.w3.org/2000/svg" xmlns:xlink="http://www.w3.org/1999/xlink" xmlns:sketch="http://www.bohemiancoding.com/sketch/ns">
    <title>map</title>
    <description>Created with Sketch (http://www.bohemiancoding.com/sketch)</description>
    <defs></defs>
    <g id="Page-2" stroke="none" stroke-width="1" fill="none" fill-rule="evenodd" sketch:type="MSPage">
        <g id="map" sketch:type="MSLayerGroup" transform="translate(1.000000, 1.000000)">
            <path d="M30.2695385,119.491873 L32.8980385,120.842532 L32.8980385,47.535094 L30.2695385,45.9844676 L30.2695385,119.491873 Z" id="Shape" fill="#30928C" sketch:type="MSShapeGroup"></path>
            <path d="M67.8560385,33.5548997 L68.0100385,106.886895 L69.8475385,106.041418 L71.3945385,106.279976 L71.3945385,33.0988331 L70.1380385,32.6638158 L67.8560385,33.5548997 Z" id="Shape" fill="#30928C" sketch:type="MSShapeGroup"></path>
            <path d="M111.235038,44.496989 L107.850538,46.3458127 L107.850538,120.94427 L111.235038,118.941085 L111.235038,44.496989 Z" id="Shape" fill="#30928C" sketch:type="MSShapeGroup"></path>
            <g id="Group" transform="translate(0.000000, 18.737461)" sketch:type="MSShapeGroup">
                <path d="M79.4130385,15.0559963 L70.1380385,11.2531028 L32.8490385,26.5383491 L6.93153846,12.4388759 L6.93153846,90.2262906 L33.2760385,104.557305 L69.8475385,89.615863 L70.4250385,89.615863 L79.3220385,93.2117724 L106.989538,104.557305 L133.341038,90.2262906 L133.341038,12.4388759 L107.416538,26.5383491 L98.1030385,22.7214228" id="Shape"></path>
                <path d="M106.989538,18.6027909 L100.745538,16.0418017 L98.1030385,22.7214228 L107.416538,26.5383491 L133.341038,12.4388759 L133.341038,90.2262906 L106.989538,104.557305 L79.3220385,93.2117724 L70.4250385,89.615863 L69.8475385,89.615863 L33.2760385,104.557305 L6.93153846,90.2262906 L6.93153846,12.4388759 L32.8490385,26.5383491 L70.1380385,11.2531028 L79.4130385,15.0559963 L75.6995385,5.76977941 L70.1380385,3.48944659 L33.2760385,18.6027909 L-0.236461538,0.363636533 L-0.236461538,94.4992834 L32.8490385,112.496372 L70.1380385,97.2076172 L107.416538,112.496372 L140.505538,94.4992834 L140.505538,0.363636533 L106.989538,18.6027909 Z" id="Shape" fill="#30928C"></path>
            </g>
            <path d="M90.3120385,-0.0291404025 C82.2830385,-0.0291404025 75.7625385,6.49962786 75.7625385,14.554465 C75.7625385,16.0524683 76.0565385,17.4662746 76.4730385,18.8274579 L76.4135385,18.8274579 L90.3120385,53.6077957 L104.553538,17.6241438 L104.525538,17.6241438 C104.739038,16.6348302 104.861538,15.6104345 104.861538,14.554465 C104.861538,6.49962786 98.3480385,-0.0291404025 90.3120385,-0.0291404025 L90.3120385,-0.0291404025 Z M90.3120385,21.490185 C86.8750385,21.490185 84.0820385,18.6906379 84.0820385,15.2455813 C84.0820385,11.8005246 86.8750385,8.99746935 90.3120385,8.99746935 C93.7490385,8.99746935 96.5455385,11.7970164 96.5455385,15.2455813 C96.5455385,18.6906379 93.7525385,21.490185 90.3120385,21.490185 L90.3120385,21.490185 Z" id="Shape" fill="#30928C" sketch:type="MSShapeGroup"></path>
        </g>
    </g>
</svg>